<svg width="236" height="50" viewBox="0 0 236 50" fill="none" xmlns="http://www.w3.org/2000/svg">
<rect x="0.71106" width="24" height="24" rx="4" fill="#F59E0B"/>
<rect x="7.40776" y="15.182" width="12" height="3" rx="1.5" transform="rotate(-45 7.40776 15.182)" fill="white"/>
<rect x="26.7111" width="24" height="24" rx="4" fill="#8B5CF6"/>
<rect x="35.5291" y="6.6967" width="12" height="3" rx="1.5" transform="rotate(45 35.5291 6.6967)" fill="white"/>
<rect x="44.0144" y="8.81802" width="12" height="3" rx="1.5" transform="rotate(135 44.0144 8.81802)" fill="white"/>
<rect x="0.71106" y="26" width="24" height="24" rx="4" fill="#EC4899"/>
<rect x="6.71106" y="36.5" width="12" height="3" rx="1.5" fill="white"/>
<rect x="14.2111" y="32" width="12" height="3" rx="1.5" transform="rotate(90 14.2111 32)" fill="white"/>
<rect x="26.7111" y="26" width="24" height="24" rx="4" fill="#84CC16"/>
<rect x="32.7111" y="36.5" width="12" height="3" rx="1.5" fill="white"/>
<rect x="54.7111" width="180.711" height="50" rx="4" fill="white"/>
<path d="M74.3581 38.451L66.7111 11H71.1032L77.7699 35.7843H78.2797L84.9071 11H89.2993L81.6915 38.451H74.3581Z" fill="#334155"/>
<path d="M100.138 38.8039C98.6744 38.8039 97.3672 38.4771 96.2169 37.8235C95.0666 37.1699 94.1646 36.2418 93.511 35.0392C92.8574 33.8366 92.5306 32.3987 92.5306 30.7255V19.1176H96.5698V30.451C96.5698 32.1242 96.9881 33.366 97.8247 34.1765C98.6613 34.9608 99.8247 35.3529 101.315 35.3529C102.962 35.3529 104.282 34.8039 105.276 33.7059C106.295 32.5817 106.805 30.9739 106.805 28.8824V19.1176H110.844V38.451H106.884V35.549H106.256C105.89 36.3333 105.236 37.0784 104.295 37.7843C103.354 38.4641 101.969 38.8039 100.138 38.8039Z" fill="#334155"/>
<path d="M125.678 39C123.717 39 122.005 38.5948 120.541 37.7843C119.077 36.9477 117.926 35.7843 117.09 34.2941C116.279 32.7778 115.874 31.0261 115.874 29.0392V28.5686C115.874 26.5556 116.279 24.8039 117.09 23.3137C117.9 21.7974 119.024 20.634 120.462 19.8235C121.926 18.9869 123.613 18.5686 125.521 18.5686C127.377 18.5686 128.998 18.9869 130.384 19.8235C131.796 20.634 132.894 21.7712 133.678 23.2353C134.462 24.6993 134.854 26.4118 134.854 28.3726V29.902H119.992C120.044 31.6013 120.606 32.9608 121.678 33.9804C122.776 34.9739 124.135 35.4706 125.756 35.4706C127.273 35.4706 128.41 35.1307 129.168 34.451C129.952 33.7712 130.554 32.9869 130.972 32.098L134.305 33.8235C133.939 34.5556 133.403 35.3268 132.698 36.1373C132.018 36.9477 131.116 37.6275 129.992 38.1765C128.867 38.7255 127.43 39 125.678 39ZM120.031 26.8039H130.737C130.632 25.3399 130.109 24.2026 129.168 23.3922C128.227 22.5556 126.998 22.1373 125.482 22.1373C123.966 22.1373 122.724 22.5556 121.756 23.3922C120.815 24.2026 120.24 25.3399 120.031 26.8039Z" fill="#334155"/>
<path d="M139.717 38.451V11H143.756V38.451H139.717Z" fill="#334155"/>
<path d="M155.75 39C154.365 39 153.123 38.7647 152.025 38.2941C150.953 37.8235 150.09 37.1307 149.437 36.2157C148.809 35.3007 148.495 34.1895 148.495 32.8824C148.495 31.549 148.809 30.451 149.437 29.5882C150.09 28.6993 150.966 28.0327 152.064 27.5882C153.188 27.1438 154.456 26.9216 155.868 26.9216H161.75V25.6667C161.75 24.5425 161.41 23.6405 160.731 22.9608C160.051 22.281 159.005 21.9412 157.593 21.9412C156.208 21.9412 155.149 22.268 154.417 22.9216C153.685 23.5752 153.201 24.4248 152.966 25.4706L149.201 24.2549C149.515 23.2092 150.012 22.268 150.691 21.4314C151.397 20.5686 152.325 19.8758 153.476 19.3529C154.626 18.8301 156.012 18.5686 157.633 18.5686C160.142 18.5686 162.116 19.2092 163.554 20.4902C164.992 21.7712 165.711 23.5882 165.711 25.9412V33.902C165.711 34.6863 166.077 35.0784 166.809 35.0784H168.456V38.451H165.437C164.521 38.451 163.776 38.2157 163.201 37.7451C162.626 37.2745 162.338 36.634 162.338 35.8235V35.7059H161.75C161.541 36.098 161.227 36.5556 160.809 37.0784C160.391 37.6013 159.776 38.0588 158.966 38.451C158.155 38.817 157.084 39 155.75 39ZM156.338 35.6667C157.959 35.6667 159.267 35.2091 160.26 34.2941C161.254 33.3529 161.75 32.0719 161.75 30.451V30.0588H156.103C155.031 30.0588 154.169 30.2941 153.515 30.7647C152.861 31.2092 152.535 31.8758 152.535 32.7647C152.535 33.6536 152.874 34.3595 153.554 34.8824C154.234 35.4052 155.162 35.6667 156.338 35.6667Z" fill="#334155"/>
<path d="M178.298 38.451C177.122 38.451 176.18 38.098 175.475 37.3922C174.795 36.6863 174.455 35.7451 174.455 34.5686V22.5294H169.122V19.1176H174.455V12.7255H178.494V19.1176H184.259V22.5294H178.494V33.8627C178.494 34.6471 178.86 35.0392 179.592 35.0392H183.631V38.451H178.298Z" fill="#334155"/>
<path d="M197.374 39C195.439 39 193.714 38.6078 192.197 37.8235C190.707 37.0131 189.531 35.8627 188.668 34.3725C187.805 32.8824 187.374 31.1176 187.374 29.0784V28.4902C187.374 26.451 187.805 24.6993 188.668 23.2353C189.531 21.7451 190.707 20.5948 192.197 19.7843C193.714 18.9739 195.439 18.5686 197.374 18.5686C199.308 18.5686 201.034 18.9739 202.55 19.7843C204.067 20.5948 205.256 21.7451 206.119 23.2353C206.982 24.6993 207.413 26.451 207.413 28.4902V29.0784C207.413 31.1176 206.982 32.8824 206.119 34.3725C205.256 35.8627 204.067 37.0131 202.55 37.8235C201.034 38.6078 199.308 39 197.374 39ZM197.374 35.3922C199.152 35.3922 200.589 34.8301 201.687 33.7059C202.812 32.5556 203.374 30.9739 203.374 28.9608V28.6078C203.374 26.5948 202.825 25.0261 201.727 23.902C200.629 22.7516 199.178 22.1765 197.374 22.1765C195.622 22.1765 194.184 22.7516 193.06 23.902C191.962 25.0261 191.413 26.5948 191.413 28.6078V28.9608C191.413 30.9739 191.962 32.5556 193.06 33.7059C194.184 34.8301 195.622 35.3922 197.374 35.3922Z" fill="#334155"/>
<path d="M212.442 38.451V19.1176H216.403V21.3922H217.03C217.344 20.5817 217.84 19.9935 218.52 19.6275C219.226 19.2353 220.089 19.0392 221.108 19.0392H223.422V22.6863H220.952C219.644 22.6863 218.572 23.0523 217.736 23.7843C216.899 24.4902 216.481 25.5882 216.481 27.0784V38.451H212.442Z" fill="#334155"/>
</svg>
