<svg width="235" height="50" viewBox="0 0 235 50" fill="none" xmlns="http://www.w3.org/2000/svg">
<rect width="24" height="24" rx="4" fill="#F59E0B"/>
<rect x="6.6967" y="15.182" width="12" height="3" rx="1.5" transform="rotate(-45 6.6967 15.182)" fill="white"/>
<rect x="26" width="24" height="24" rx="4" fill="#8B5CF6"/>
<rect x="34.818" y="6.6967" width="12" height="3" rx="1.5" transform="rotate(45 34.818 6.6967)" fill="white"/>
<rect x="43.3033" y="8.81802" width="12" height="3" rx="1.5" transform="rotate(135 43.3033 8.81802)" fill="white"/>
<rect y="26" width="24" height="24" rx="4" fill="#EC4899"/>
<rect x="6" y="36.5" width="12" height="3" rx="1.5" fill="white"/>
<rect x="13.5" y="32" width="12" height="3" rx="1.5" transform="rotate(90 13.5 32)" fill="white"/>
<rect x="26" y="26" width="24" height="24" rx="4" fill="#84CC16"/>
<rect x="32" y="36.5" width="12" height="3" rx="1.5" fill="white"/>
<rect x="54" width="180.711" height="50" rx="4" fill="#334155"/>
<path d="M73.6471 38.451L66 11H70.3922L77.0588 35.7843H77.5686L84.1961 11H88.5882L80.9804 38.451H73.6471Z" fill="white"/>
<path d="M99.4274 38.8039C97.9633 38.8039 96.6561 38.4771 95.5058 37.8235C94.3555 37.1699 93.4535 36.2418 92.7999 35.0392C92.1463 33.8366 91.8195 32.3987 91.8195 30.7255V19.1176H95.8588V30.451C95.8588 32.1242 96.2771 33.366 97.1137 34.1765C97.9503 34.9608 99.1137 35.3529 100.604 35.3529C102.251 35.3529 103.571 34.8039 104.565 33.7059C105.584 32.5817 106.094 30.9739 106.094 28.8824V19.1176H110.133V38.451H106.172V35.549H105.545C105.179 36.3333 104.525 37.0784 103.584 37.7843C102.643 38.4641 101.257 38.8039 99.4274 38.8039Z" fill="white"/>
<path d="M124.967 39C123.006 39 121.294 38.5948 119.83 37.7843C118.366 36.9477 117.215 35.7843 116.379 34.2941C115.568 32.7778 115.163 31.0261 115.163 29.0392V28.5686C115.163 26.5556 115.568 24.8039 116.379 23.3137C117.189 21.7974 118.313 20.634 119.751 19.8235C121.215 18.9869 122.902 18.5686 124.81 18.5686C126.666 18.5686 128.287 18.9869 129.673 19.8235C131.085 20.634 132.183 21.7712 132.967 23.2353C133.751 24.6993 134.143 26.4118 134.143 28.3726V29.902H119.281C119.333 31.6013 119.895 32.9608 120.967 33.9804C122.065 34.9739 123.424 35.4706 125.045 35.4706C126.562 35.4706 127.699 35.1307 128.457 34.451C129.241 33.7712 129.843 32.9869 130.261 32.098L133.594 33.8235C133.228 34.5556 132.692 35.3268 131.987 36.1373C131.307 36.9477 130.405 37.6275 129.281 38.1765C128.156 38.7255 126.719 39 124.967 39ZM119.32 26.8039H130.026C129.921 25.3399 129.398 24.2026 128.457 23.3922C127.516 22.5556 126.287 22.1373 124.771 22.1373C123.254 22.1373 122.013 22.5556 121.045 23.3922C120.104 24.2026 119.529 25.3399 119.32 26.8039Z" fill="white"/>
<path d="M139.005 38.451V11H143.045V38.451H139.005Z" fill="white"/>
<path d="M155.039 39C153.654 39 152.412 38.7647 151.314 38.2941C150.242 37.8235 149.379 37.1307 148.725 36.2157C148.098 35.3007 147.784 34.1895 147.784 32.8824C147.784 31.549 148.098 30.451 148.725 29.5882C149.379 28.6993 150.255 28.0327 151.353 27.5882C152.477 27.1438 153.745 26.9216 155.157 26.9216H161.039V25.6667C161.039 24.5425 160.699 23.6405 160.02 22.9608C159.34 22.281 158.294 21.9412 156.882 21.9412C155.497 21.9412 154.438 22.268 153.706 22.9216C152.974 23.5752 152.49 24.4248 152.255 25.4706L148.49 24.2549C148.804 23.2092 149.301 22.268 149.98 21.4314C150.686 20.5686 151.614 19.8758 152.765 19.3529C153.915 18.8301 155.301 18.5686 156.922 18.5686C159.431 18.5686 161.405 19.2092 162.843 20.4902C164.281 21.7712 165 23.5882 165 25.9412V33.902C165 34.6863 165.366 35.0784 166.098 35.0784H167.745V38.451H164.725C163.81 38.451 163.065 38.2157 162.49 37.7451C161.915 37.2745 161.627 36.634 161.627 35.8235V35.7059H161.039C160.83 36.098 160.516 36.5556 160.098 37.0784C159.68 37.6013 159.065 38.0588 158.255 38.451C157.444 38.817 156.373 39 155.039 39ZM155.627 35.6667C157.248 35.6667 158.556 35.2091 159.549 34.2941C160.542 33.3529 161.039 32.0719 161.039 30.451V30.0588H155.392C154.32 30.0588 153.457 30.2941 152.804 30.7647C152.15 31.2092 151.824 31.8758 151.824 32.7647C151.824 33.6536 152.163 34.3595 152.843 34.8824C153.523 35.4052 154.451 35.6667 155.627 35.6667Z" fill="white"/>
<path d="M177.587 38.451C176.411 38.451 175.469 38.098 174.763 37.3922C174.084 36.6863 173.744 35.7451 173.744 34.5686V22.5294H168.411V19.1176H173.744V12.7255H177.783V19.1176H183.548V22.5294H177.783V33.8627C177.783 34.6471 178.149 35.0392 178.881 35.0392H182.92V38.451H177.587Z" fill="white"/>
<path d="M196.663 39C194.728 39 193.003 38.6078 191.486 37.8235C189.996 37.0131 188.82 35.8627 187.957 34.3725C187.094 32.8824 186.663 31.1176 186.663 29.0784V28.4902C186.663 26.451 187.094 24.6993 187.957 23.2353C188.82 21.7451 189.996 20.5948 191.486 19.7843C193.003 18.9739 194.728 18.5686 196.663 18.5686C198.597 18.5686 200.323 18.9739 201.839 19.7843C203.355 20.5948 204.545 21.7451 205.408 23.2353C206.271 24.6993 206.702 26.451 206.702 28.4902V29.0784C206.702 31.1176 206.271 32.8824 205.408 34.3725C204.545 35.8627 203.355 37.0131 201.839 37.8235C200.323 38.6078 198.597 39 196.663 39ZM196.663 35.3922C198.44 35.3922 199.878 34.8301 200.976 33.7059C202.101 32.5556 202.663 30.9739 202.663 28.9608V28.6078C202.663 26.5948 202.114 25.0261 201.016 23.902C199.918 22.7516 198.467 22.1765 196.663 22.1765C194.911 22.1765 193.473 22.7516 192.349 23.902C191.251 25.0261 190.702 26.5948 190.702 28.6078V28.9608C190.702 30.9739 191.251 32.5556 192.349 33.7059C193.473 34.8301 194.911 35.3922 196.663 35.3922Z" fill="white"/>
<path d="M211.731 38.451V19.1176H215.691V21.3922H216.319C216.633 20.5817 217.129 19.9935 217.809 19.6275C218.515 19.2353 219.378 19.0392 220.397 19.0392H222.711V22.6863H220.24C218.933 22.6863 217.861 23.0523 217.025 23.7843C216.188 24.4902 215.77 25.5882 215.77 27.0784V38.451H211.731Z" fill="white"/>
</svg>
